<svg width="88" height="64" viewBox="0 0 88 64" fill="none" xmlns="http://www.w3.org/2000/svg">
<path d="M51.4012 63.3445C47.0453 63.8002 42.6736 62.6403 39.1165 60.0852C35.5979 57.5328 32.6063 54.3238 30.3065 50.6351C26.2568 44.5268 23.3366 37.7411 21.6847 30.601C18.9022 33.9452 14.499 35.4771 10.2416 34.5823C3.42522 33.052 -0.662607 25.0989 0.666922 18.2405C1.99645 11.3822 7.62304 5.94471 14.044 3.19213C20.4649 0.439554 27.6207 -0.0151274 34.6068 0.000375553C39.2134 0.0106295 43.9081 0.225443 48.2352 1.80538C52.5622 3.38532 56.5265 6.5342 58.0637 10.8767C59.0275 13.5992 58.996 16.6126 60.0919 19.2847C62.0813 24.1357 67.2411 26.7847 72.0836 28.7947C76.9261 30.8047 82.1905 32.8458 85.0463 37.243C88.271 42.2084 87.3404 49.1384 83.7867 53.874C80.2329 58.6097 74.5254 61.3555 68.7172 62.5038C62.9089 63.652 56.925 63.3681 51.0113 63.0794" fill="#3C3C3C"/>
</svg>
