<svg width="65" height="51" viewBox="0 0 65 51" fill="none" xmlns="http://www.w3.org/2000/svg">
<path d="M23.2866 18.7371C20.7219 22.8171 16.9109 25.9623 12.4184 27.7064C9.23659 28.9317 5.19918 29.2362 2.81105 26.8026C1.08107 25.0398 0.736287 22.3268 0.981709 19.8691C1.74794 12.198 7.51345 5.51795 14.6669 2.64366C21.8203 -0.230603 30.0786 0.397708 37.2176 3.3077C43.9533 6.05326 50.3503 11.678 50.7126 18.9427C50.8983 22.6657 49.5502 26.7652 51.5488 29.9117C53.054 32.2816 55.9611 33.2445 58.5651 34.294C61.169 35.3434 63.9637 36.9995 64.4982 39.7556C64.7617 41.6783 64.0962 43.6119 62.7053 44.9652C61.3208 46.2873 59.6823 47.3146 57.8891 47.9849C53.6425 49.7931 48.9679 50.9204 44.4057 50.2213C39.8435 49.5222 35.432 46.744 33.6465 42.4879C32.2716 39.2103 32.5532 35.5118 32.712 31.961C32.8707 28.4103 32.8225 24.6287 30.9267 21.6222C29.0308 18.6158 24.6293 16.9327 21.796 19.0787" fill="#3C3C3C"/>
</svg>
