<svg width="89" height="64" viewBox="0 0 89 64" fill="none" xmlns="http://www.w3.org/2000/svg">
<path d="M8.45634 0.908785L46.912 23.1112C54.3017 15.2049 66.4281 13.098 76.1933 18.736C87.5613 25.2992 91.4699 39.8863 84.9066 51.2542C78.3433 62.6222 63.7562 66.5308 52.3883 59.9675C42.6231 54.3296 38.3845 42.7743 41.5367 32.4215L31.677 26.7291L29.7572 30.0542C28.2729 32.6252 24.9854 33.506 22.4145 32.0216C19.8435 30.5373 18.9625 27.2498 20.4469 24.6789L22.3667 21.3537L15.7164 17.5142L10.7251 26.1595C9.2407 28.7305 5.95323 29.6114 3.38222 28.127C0.81126 26.6426 -0.0697062 23.3552 1.41467 20.7841L6.40603 12.1388L3.081 10.2191C0.509987 8.73476 -0.370895 5.44727 1.11349 2.87623C2.59784 0.305266 5.88532 -0.57559 8.45634 0.908785ZM57.7636 50.6571C63.9976 54.2563 71.9971 52.1129 75.5963 45.8789C79.1954 39.6449 77.052 31.6455 70.818 28.0463C64.5841 24.4471 56.5846 26.5906 52.9854 32.8245C49.3862 39.0585 51.5297 47.058 57.7636 50.6571Z" fill="#3D3D3D"/>
</svg>
