<svg width="52" height="36" viewBox="0 0 52 36" fill="none" xmlns="http://www.w3.org/2000/svg">
<path d="M9.21932 35.3247L40.5733 35.0165C46.7815 34.9758 51.7929 29.9315 51.7929 23.723L51.793 8.09284C51.7975 6.94556 51.2555 5.86469 50.3334 5.18214C49.4112 4.49958 48.2191 4.297 47.1233 4.6366C41.4599 6.45228 36.8232 5.84791 33.3264 2.55653C31.2303 0.583564 30.9856 0.18708 28.4904 1.62263L14.3348 17.085L8.59383 17.4554C4.14315 17.7425 0.58419 21.2645 0.250694 25.7119C0.0638045 28.2018 0.926476 30.6566 2.62984 32.4823C4.33334 34.3081 6.72237 35.3386 9.21932 35.3247Z" fill="#3C3C3C"/>
</svg>
