<svg width="41" height="54" viewBox="0 0 41 54" fill="none" xmlns="http://www.w3.org/2000/svg">
<path d="M15.6778 51.3451L37.6305 28.9566C41.9917 24.5379 41.9684 17.4274 37.5783 13.0373L26.5261 1.98508C25.7181 1.17063 24.5705 0.789587 23.4359 0.95896C22.3012 1.12845 21.315 1.82816 20.7803 2.84318C18.0595 8.13169 14.3534 10.9831 9.55356 11.1283C6.67624 11.2153 6.22281 11.1079 5.4736 13.8874L6.39755 34.8305L2.59995 39.152C-0.344024 42.502 -0.370147 47.5089 2.53867 50.8896C4.16733 52.7823 6.51309 53.9081 9.00858 53.9946C11.504 54.0811 13.922 53.1205 15.6778 51.3451Z" fill="#3C3C3C"/>
</svg>
